<svg width="23" height="22" viewBox="0 0 23 22" fill="none" xmlns="http://www.w3.org/2000/svg">
<path d="M6.19496 13.8435C5.89665 13.8636 5.59744 13.8198 5.3183 13.7152C5.03917 13.6105 4.78687 13.4476 4.57909 13.2378C4.17956 12.747 3.98162 12.1287 4.02386 11.5034C3.97982 10.8626 4.18565 10.2294 4.60008 9.73054C4.81617 9.51551 5.07741 9.34865 5.36584 9.24144C5.65428 9.13424 5.96308 9.08921 6.27103 9.10946C6.72943 9.10124 7.18398 9.19244 7.60185 9.37649L7.29931 10.1563C6.96999 10.0171 6.61801 9.9359 6.25967 9.91652C5.44911 9.91652 5.04689 10.4403 5.04689 11.4871C5.01783 11.8941 5.12358 12.2993 5.34855 12.6431C5.45366 12.773 5.58946 12.8761 5.74434 12.9435C5.89921 13.011 6.06854 13.0408 6.23781 13.0305C6.6782 13.0297 7.11107 12.919 7.49518 12.7088V13.5543C7.31826 13.656 7.12579 13.7295 6.92508 13.7718C6.68496 13.8243 6.43923 13.8484 6.19321 13.8435H6.19496Z" fill="#96CA4B"/>
<path d="M10.2416 13.7616H9.24658V7.33643H10.2416V13.7616Z" fill="#96CA4B"/>
<path d="M11.8348 15.7906C11.5827 15.7981 11.3312 15.7629 11.0916 15.6865V14.9186C11.283 14.9685 11.4802 14.994 11.6783 14.9946C12.1032 14.9946 12.3157 14.7602 12.3157 14.2916V9.19141H13.3107V14.3555C13.3249 14.5496 13.2984 14.7444 13.233 14.9281C13.1677 15.1119 13.0647 15.2808 12.9304 15.4245C12.7818 15.5535 12.6084 15.6523 12.4203 15.7151C12.2322 15.7779 12.0332 15.8036 11.8348 15.7906Z" fill="#5F7FBF"/>
<path d="M12.2536 7.9882C12.249 7.9156 12.2596 7.84284 12.2847 7.77435C12.3098 7.70585 12.3489 7.64306 12.3996 7.58977C12.4561 7.53986 12.5223 7.5016 12.5942 7.47726C12.6662 7.45292 12.7425 7.44302 12.8185 7.44814C12.893 7.44066 12.9684 7.44948 13.039 7.47398C13.1097 7.49847 13.1738 7.53802 13.2268 7.58974C13.2798 7.64147 13.3204 7.70407 13.3455 7.77299C13.3706 7.84192 13.3796 7.91544 13.3719 7.9882C13.3781 8.13252 13.326 8.27345 13.2268 8.38066C13.1718 8.42957 13.1074 8.46729 13.0372 8.49161C12.9671 8.51593 12.8928 8.52636 12.8185 8.52229C12.6652 8.53061 12.5147 8.47973 12.3996 8.38066C12.349 8.32851 12.3099 8.26675 12.2848 8.19924C12.2597 8.13172 12.2491 8.05989 12.2536 7.9882Z" fill="#5F7FBF"/>
<path d="M18.5203 12.463C18.5301 12.6604 18.4898 12.8572 18.4031 13.0357C18.3163 13.2143 18.1857 13.3693 18.0228 13.4868C17.5961 13.7497 17.095 13.8739 16.5914 13.8417C16.0749 13.8627 15.5603 13.7675 15.0875 13.5636V12.7232C15.5666 12.9533 16.0909 13.0799 16.6247 13.0944C17.2367 13.0944 17.5419 12.9143 17.5419 12.5543C17.5451 12.4492 17.5094 12.3465 17.4413 12.2651C17.3446 12.1666 17.231 12.0855 17.1056 12.0253C16.8958 11.9194 16.6794 11.8265 16.4576 11.7472C16.0525 11.6209 15.6792 11.4127 15.362 11.1363C15.1664 10.9182 15.0643 10.635 15.077 10.3455C15.0715 10.166 15.1135 9.9882 15.1992 9.8293C15.2848 9.6704 15.4111 9.53579 15.5658 9.43854C15.9617 9.20334 16.4216 9.09117 16.8844 9.11689C17.4225 9.11482 17.9547 9.22659 18.4443 9.44451L18.1199 10.1748C17.7187 9.99565 17.2865 9.89202 16.8459 9.86939C16.3212 9.86939 16.0589 10.017 16.0589 10.3062C16.0603 10.379 16.0799 10.4503 16.116 10.5139C16.1521 10.5776 16.2037 10.6316 16.2662 10.6714C16.5483 10.8388 16.8482 10.9758 17.1607 11.08C17.4556 11.1833 17.7384 11.3169 18.0044 11.4785C18.1656 11.588 18.2995 11.7314 18.3962 11.8982C18.4858 12.0743 18.53 12.269 18.5247 12.4656L18.5203 12.463Z" fill="#5F7FBF"/>
<path d="M10.4016 1.44015L10.5546 1.4265V0.00341797L10.3736 0.0179218C7.54701 0.243531 4.91081 1.49849 2.98889 3.53344C1.06697 5.56839 0 8.23437 0 11.0016C0 13.7689 1.06697 16.4349 2.98889 18.4698C4.91081 20.5047 7.54701 21.7597 10.3736 21.9853L10.5546 21.9998V20.5708L10.4016 20.558C7.95494 20.3438 5.67895 19.244 4.02136 17.4751C2.36376 15.7061 1.44456 13.396 1.44456 10.9991C1.44456 8.60216 2.36376 6.29201 4.02136 4.52304C5.67895 2.75407 7.95494 1.65433 10.4016 1.44015Z" fill="#96CA4B"/>
<path d="M19.5574 3.51245C17.6388 1.48471 15.0082 0.235928 12.1889 0.0145037L12.0079 0V1.42648L12.161 1.44013C14.6083 1.65434 16.8849 2.75435 18.543 4.52377C20.2011 6.2932 21.1205 8.60395 21.1205 11.0015C21.1205 13.399 20.2011 15.7098 18.543 17.4792C16.8849 19.2486 14.6083 20.3486 12.161 20.5628L12.0079 20.5765V21.9995L12.1889 21.985C14.3019 21.819 16.3242 21.0758 18.0245 19.8406C19.7247 18.6055 21.0342 16.9281 21.8031 15.0006C22.5719 13.0732 22.7691 10.9734 22.3719 8.94173C21.9748 6.91004 20.9994 5.02849 19.5574 3.51245Z" fill="#5F7FBF"/>
</svg>
